inDegrees=yes
name=ik_S41_A08_T01
DataType=double
version=3
OpenSimVersion=4.3-2021-08-27-4bc7ad9
endheader
time	pelvis_tilt	pelvis_list	pelvis_rotation	pelvis_tx	pelvis_ty	pelvis_tz	hip_flexion_r	hip_adduction_r	hip_rotation_r	knee_angle_r	knee_angle_r_beta	ankle_angle_r	subtalar_angle_r	mtp_angle_r	hip_flexion_l	hip_adduction_l	hip_rotation_l	knee_angle_l	knee_angle_l_beta	ankle_angle_l	subtalar_angle_l	mtp_angle_l	lumbar_extension	lumbar_bending	lumbar_rotation	arm_flex_r	arm_add_r	arm_rot_r	elbow_flex_r	pro_sup_r	wrist_flex_r	wrist_dev_r	arm_flex_l	arm_add_l	arm_rot_l	elbow_flex_l	pro_sup_l	wrist_flex_l	wrist_dev_l
0	0	0	0	0	0.9399999999999999	0	0	0	0	0	0	0	0	0	0	0	0	0	0	0	0	0	0	0	0	0	0	0	0	89.99999999963507	0	0	0	0	0	0	89.99999999869995	0	0
0.02	-9.377694008882168	-4.929035278020132	26.42570728469889	0	0.9399999999999999	0	1.977740160221011	-0.9322301050158583	-0.6655858265415008	3.076841115974718	0.05370100803449552	0	0	0	1.977740160221011	-0.9322301050158583	-0.6655858265415008	3.076841115974718	0.05370100803449552	0	0	0	-8.783872132570384	-3.727829467599074	10.91000075658786	28.20423023899984	-1.567834432542335	2.643406794390909	8.974995630513916	83.92285031958184	0	0	26.00271672835625	1.082341886866093	1.840299447326064	7.235228435783661	80.5917779264945	0	0
0.04	-9.359942486402137	-4.923893701665674	26.48941609438049	0	0.9399999999999999	0	2.331288571165583	-1.079248688410485	-0.7992972720119471	3.241244724557096	0.05657039230641803	0	0	0	2.331288571165583	-1.079248688410485	-0.7992972720119471	3.241244724557096	0.05657039230641803	0	0	0	-8.778207605376942	-3.706420610919056	10.83848517714751	28.2000727726459	-1.580479139037219	2.660281069792438	8.954746259462958	83.92392169936471	0	0	25.96614651817112	1.063784971509868	1.809048547990501	7.196919802024258	80.58515158286585	0	0
0.06	-9.305240379640118	-4.958691121394525	26.77721757320964	0	0.9399999999999999	0	4.446774795746384	-1.99285331606108	-1.558436419227677	5.067411316301701	0.0884430120222845	0	0	0	4.446774795746384	-1.99285331606108	-1.558436419227677	5.067411316301701	0.0884430120222845	0	0	0	-8.821244311538441	-3.614192325345638	10.55418068507731	28.17816874358337	-1.561421565352869	2.694238656584411	9.002257178376448	83.88300203557793	0	0	25.9564821413151	1.064981217735379	1.786154738415519	7.25017366411366	80.6083363658003	0	0
0.08	-9.251999072353222	-4.980355648469942	27.09055576621104	0	0.9399999999999999	0	6.680054171385706	-2.882298542532693	-2.331855563473167	6.926241534024716	0.1208857195571141	0	0	0	6.680054171385706	-2.882298542532693	-2.331855563473167	6.926241534024716	0.1208857195571141	0	0	0	-8.865335626930358	-3.526478565443584	10.25599582696179	28.17923454861965	-1.561380558253	2.723473834184416	8.994300947584271	83.87446164649705	0	0	25.94610551276443	1.067389986886831	1.787996086592036	7.231586359441185	80.59484309977965	0	0
0.1	-9.277699340508555	-5.047783182174104	31.03297460510245	0	0.9399999999999999	0	44.77885836884933	-13.39156409967243	-12.39257757319305	50.73265143333367	0.8854518057782931	0	0	0	44.77885836884933	-13.39156409967243	-12.39257757319305	50.73265143333367	0.8854518057782931	0	0	0	-9.033178732130771	-2.873996182580804	6.359710939188497	28.19239756344064	-1.555620699613976	2.727669597072525	8.947600932225338	83.90086855918189	0	0	25.94899831423143	1.06081701805772	1.817901894071747	7.265743790754632	80.54615372952519	0	0
0.12	-9.269276586610399	-5.045164104949296	31.03979488430884	0	0.9399999999999999	0	44.77906426759911	-13.38514253218874	-12.38878731607751	50.73552528892815	0.8855019640206436	0	0	0	44.77906426759911	-13.38514253218874	-12.38878731607751	50.73552528892815	0.8855019640206436	0	0	0	-9.025718274445572	-2.873572518802199	6.353840553936824	28.18417609588542	-1.545650875112639	2.734416982975506	8.920114067763723	83.89182228968815	0	0	25.94651896541665	1.075150521144535	1.82179138003637	7.227816256664705	80.54199112805753	0	0
0.14	-9.26211408396861	-5.048144397511892	31.06030076566404	0	0.9399999999999999	0	44.77991366344838	-13.35460357424891	-12.37199254617775	50.74713684555729	0.8857046239151037	0	0	0	44.77991366344838	-13.35460357424891	-12.37199254617775	50.74713684555729	0.8857046239151037	0	0	0	-9.024690750317847	-2.871792293788677	6.345859173460356	28.17227631618809	-1.542852319629484	2.74972770692377	8.971918625736059	83.86610413180782	0	0	25.92354009492849	1.059648262491557	1.818530035917782	7.267773583489754	80.54628188941231	0	0
0.16	-9.256227823253822	-5.049702742243009	31.08003858471727	0	0.9399999999999999	0	44.7809541923565	-13.31706176671752	-12.35139865029642	50.7613653490431	0.8859529581485627	0	0	0	44.7809541923565	-13.31706176671752	-12.35139865029642	50.7613653490431	0.8859529581485627	0	0	0	-9.025112564062043	-2.865887686108655	6.333550974097792	28.14474508056784	-1.559719056806323	2.747778379355405	9.088818969004699	83.85115358963496	0	0	25.90953804872021	1.048211030032704	1.800429676526778	7.364327367096787	80.55392434162414	0	0
0.18	-9.244124595044559	-5.043944968604338	31.08271336009131	0	0.9399999999999999	0	44.78128174626581	-13.3052672918467	-12.34488444385534	50.76583600354866	0.886030985789404	0	0	0	44.78128174626581	-13.3052672918467	-12.34488444385534	50.76583600354866	0.886030985789404	0	0	0	-9.01339792564551	-2.863941141125542	6.328664696435475	28.13391128650544	-1.562288715142444	2.757586134581719	9.020490509895986	83.84326649389705	0	0	25.89186036668906	1.06534227145682	1.798584974079854	7.323792665989217	80.54469401464124	0	0
0.2	-9.24801807480069	-5.04660661266276	31.09279156652376	0	0.9399999999999999	0	44.78202534120923	-13.28160558394245	-12.33098274387718	50.77615691083911	0.8862111196034154	0	0	0	44.78202534120923	-13.28160558394245	-12.33098274387718	50.77615691083911	0.8862111196034154	0	0	0	-9.021359762676569	-2.857051714678878	6.321137324118087	28.18355749775901	-1.567941125258591	2.76243939419481	8.945094321533988	83.82016661087778	0	0	25.89851498501805	1.090922644679533	1.799152855068771	7.280372205246587	80.51815369514104	0	0
0.22	-9.241104111573113	-5.051710949021746	31.10034858714772	0	0.9399999999999999	0	44.78270570743305	-13.25390659851373	-12.31672574493861	50.78534189167705	0.8863714277607699	0	0	0	44.78270570743305	-13.25390659851373	-12.31672574493861	50.78534189167705	0.8863714277607699	0	0	0	-9.020518458617675	-2.859881702101017	6.317990913908763	28.15096866309037	-1.571461198433415	2.757741809259151	9.09535860207815	83.81470012184862	0	0	25.87691106556042	1.071144256040678	1.804880999526149	7.429467085394907	80.52123174686436	0	0
